<mxfile host="Electron" agent="Mozilla/5.0 (Windows NT 10.0; Win64; x64) AppleWebKit/537.36 (KHTML, like Gecko) draw.io/26.0.9 Chrome/128.0.6613.186 Electron/32.2.5 Safari/537.36" version="26.0.9">
  <diagram name="Pagina-1" id="EFLu1AQBwMiZAzIOQset">
    <mxGraphModel dx="1434" dy="836" grid="1" gridSize="10" guides="1" tooltips="1" connect="1" arrows="1" fold="1" page="1" pageScale="1" pageWidth="827" pageHeight="1169" math="0" shadow="0">
      <root>
        <mxCell id="0" />
        <mxCell id="1" parent="0" />
        <mxCell id="ofJ6U8pSTINHV9A1GesG-6" value="Task Management" style="swimlane;childLayout=stackLayout;resizeParent=1;resizeParentMax=0;horizontal=1;startSize=20;horizontalStack=0;html=1;fillColor=#FFFFFF;swimlaneFillColor=default;" parent="1" vertex="1">
          <mxGeometry x="510" y="280" width="250" height="100" as="geometry" />
        </mxCell>
        <mxCell id="ofJ6U8pSTINHV9A1GesG-12" value="id task int" style="text;html=1;align=center;verticalAlign=middle;whiteSpace=wrap;rounded=0;" parent="ofJ6U8pSTINHV9A1GesG-6" vertex="1">
          <mxGeometry y="20" width="250" height="20" as="geometry" />
        </mxCell>
        <mxCell id="ofJ6U8pSTINHV9A1GesG-13" value="id user int" style="text;html=1;align=center;verticalAlign=middle;whiteSpace=wrap;rounded=0;" parent="ofJ6U8pSTINHV9A1GesG-6" vertex="1">
          <mxGeometry y="40" width="250" height="20" as="geometry" />
        </mxCell>
        <mxCell id="ofJ6U8pSTINHV9A1GesG-15" value="task varchar" style="text;html=1;align=center;verticalAlign=middle;whiteSpace=wrap;rounded=0;" parent="ofJ6U8pSTINHV9A1GesG-6" vertex="1">
          <mxGeometry y="60" width="250" height="20" as="geometry" />
        </mxCell>
        <mxCell id="ofJ6U8pSTINHV9A1GesG-16" value="task_status (completed or in progress) bit" style="text;html=1;align=center;verticalAlign=middle;whiteSpace=wrap;rounded=0;" parent="ofJ6U8pSTINHV9A1GesG-6" vertex="1">
          <mxGeometry y="80" width="250" height="20" as="geometry" />
        </mxCell>
        <mxCell id="ofJ6U8pSTINHV9A1GesG-10" value="Users" style="swimlane;childLayout=stackLayout;resizeParent=1;resizeParentMax=0;horizontal=1;startSize=20;horizontalStack=0;html=1;fillColor=#FFFFFF;swimlaneFillColor=default;" parent="1" vertex="1">
          <mxGeometry x="100" y="280" width="250" height="80" as="geometry" />
        </mxCell>
        <mxCell id="ofJ6U8pSTINHV9A1GesG-19" value="id user int" style="text;html=1;align=center;verticalAlign=middle;whiteSpace=wrap;rounded=0;" parent="ofJ6U8pSTINHV9A1GesG-10" vertex="1">
          <mxGeometry y="20" width="250" height="20" as="geometry" />
        </mxCell>
        <mxCell id="ofJ6U8pSTINHV9A1GesG-20" value="first name varchar" style="text;html=1;align=center;verticalAlign=middle;whiteSpace=wrap;rounded=0;" parent="ofJ6U8pSTINHV9A1GesG-10" vertex="1">
          <mxGeometry y="40" width="250" height="20" as="geometry" />
        </mxCell>
        <mxCell id="ofJ6U8pSTINHV9A1GesG-17" value="last name varchar" style="text;html=1;align=center;verticalAlign=middle;whiteSpace=wrap;rounded=0;" parent="ofJ6U8pSTINHV9A1GesG-10" vertex="1">
          <mxGeometry y="60" width="250" height="20" as="geometry" />
        </mxCell>
        <mxCell id="ofJ6U8pSTINHV9A1GesG-23" style="edgeStyle=orthogonalEdgeStyle;rounded=0;orthogonalLoop=1;jettySize=auto;html=1;entryX=0;entryY=0.5;entryDx=0;entryDy=0;" parent="1" source="ofJ6U8pSTINHV9A1GesG-24" target="ofJ6U8pSTINHV9A1GesG-13" edge="1">
          <mxGeometry relative="1" as="geometry" />
        </mxCell>
        <mxCell id="ofJ6U8pSTINHV9A1GesG-25" value="" style="edgeStyle=orthogonalEdgeStyle;rounded=0;orthogonalLoop=1;jettySize=auto;html=1;" parent="1" source="ofJ6U8pSTINHV9A1GesG-19" target="ofJ6U8pSTINHV9A1GesG-24" edge="1">
          <mxGeometry relative="1" as="geometry">
            <mxPoint x="350" y="290" as="sourcePoint" />
            <mxPoint x="510" y="290" as="targetPoint" />
            <Array as="points">
              <mxPoint x="414" y="310" />
            </Array>
          </mxGeometry>
        </mxCell>
        <mxCell id="ofJ6U8pSTINHV9A1GesG-24" value="references" style="text;html=1;align=center;verticalAlign=middle;whiteSpace=wrap;rounded=0;" parent="1" vertex="1">
          <mxGeometry x="390" y="295" width="60" height="30" as="geometry" />
        </mxCell>
        <mxCell id="MsS7dAGRnLY-AjQJAYbn-2" value="Users" style="swimlane;childLayout=stackLayout;resizeParent=1;resizeParentMax=0;horizontal=1;startSize=20;horizontalStack=0;html=1;fillColor=#FFFFFF;swimlaneFillColor=default;" vertex="1" parent="1">
          <mxGeometry x="100" y="480" width="250" height="80" as="geometry" />
        </mxCell>
        <mxCell id="MsS7dAGRnLY-AjQJAYbn-4" value="id, name, last name: 1, Luka,&amp;nbsp;Higfizer&amp;nbsp;" style="text;html=1;align=center;verticalAlign=middle;whiteSpace=wrap;rounded=0;" vertex="1" parent="MsS7dAGRnLY-AjQJAYbn-2">
          <mxGeometry y="20" width="250" height="20" as="geometry" />
        </mxCell>
        <mxCell id="MsS7dAGRnLY-AjQJAYbn-7" value="id, name, last name: 2, Andrea, Marcin&lt;span style=&quot;background-color: transparent; color: light-dark(rgb(0, 0, 0), rgb(255, 255, 255));&quot;&gt;&amp;nbsp;&lt;/span&gt;" style="text;html=1;align=center;verticalAlign=middle;whiteSpace=wrap;rounded=0;" vertex="1" parent="MsS7dAGRnLY-AjQJAYbn-2">
          <mxGeometry y="40" width="250" height="20" as="geometry" />
        </mxCell>
        <mxCell id="MsS7dAGRnLY-AjQJAYbn-8" value="id, name, last name: 3, Enrison,&amp;nbsp;Olihood" style="text;html=1;align=center;verticalAlign=middle;whiteSpace=wrap;rounded=0;" vertex="1" parent="MsS7dAGRnLY-AjQJAYbn-2">
          <mxGeometry y="60" width="250" height="20" as="geometry" />
        </mxCell>
        <mxCell id="MsS7dAGRnLY-AjQJAYbn-9" value="Task Management" style="swimlane;childLayout=stackLayout;resizeParent=1;resizeParentMax=0;horizontal=1;startSize=20;horizontalStack=0;html=1;fillColor=#FFFFFF;swimlaneFillColor=default;" vertex="1" parent="1">
          <mxGeometry x="462.5" y="480" width="345" height="140" as="geometry" />
        </mxCell>
        <mxCell id="MsS7dAGRnLY-AjQJAYbn-10" value="id user, task, status: 1, Read a book, in progress" style="text;html=1;align=center;verticalAlign=middle;whiteSpace=wrap;rounded=0;" vertex="1" parent="MsS7dAGRnLY-AjQJAYbn-9">
          <mxGeometry y="20" width="345" height="20" as="geometry" />
        </mxCell>
        <mxCell id="MsS7dAGRnLY-AjQJAYbn-14" value="id user, task, status: 1, Create an API project, completed" style="text;html=1;align=center;verticalAlign=middle;whiteSpace=wrap;rounded=0;" vertex="1" parent="MsS7dAGRnLY-AjQJAYbn-9">
          <mxGeometry y="40" width="345" height="20" as="geometry" />
        </mxCell>
        <mxCell id="MsS7dAGRnLY-AjQJAYbn-15" value="id user, task, status: 2, Studing history, completed" style="text;html=1;align=center;verticalAlign=middle;whiteSpace=wrap;rounded=0;" vertex="1" parent="MsS7dAGRnLY-AjQJAYbn-9">
          <mxGeometry y="60" width="345" height="20" as="geometry" />
        </mxCell>
        <mxCell id="MsS7dAGRnLY-AjQJAYbn-17" value="id user, task, status: 2, Call marcus for job, in progress" style="text;html=1;align=center;verticalAlign=middle;whiteSpace=wrap;rounded=0;" vertex="1" parent="MsS7dAGRnLY-AjQJAYbn-9">
          <mxGeometry y="80" width="345" height="20" as="geometry" />
        </mxCell>
        <mxCell id="MsS7dAGRnLY-AjQJAYbn-18" value="id user, task, status: 3, Drawing, completed" style="text;html=1;align=center;verticalAlign=middle;whiteSpace=wrap;rounded=0;" vertex="1" parent="MsS7dAGRnLY-AjQJAYbn-9">
          <mxGeometry y="100" width="345" height="20" as="geometry" />
        </mxCell>
        <mxCell id="MsS7dAGRnLY-AjQJAYbn-16" value="id user, task, status: 3, Learn c#, in progress" style="text;html=1;align=center;verticalAlign=middle;whiteSpace=wrap;rounded=0;" vertex="1" parent="MsS7dAGRnLY-AjQJAYbn-9">
          <mxGeometry y="120" width="345" height="20" as="geometry" />
        </mxCell>
      </root>
    </mxGraphModel>
  </diagram>
</mxfile>
